<?xml version="1.0" standalone="no"?>
<!DOCTYPE svg PUBLIC "-//W3C//DTD SVG 20010904//EN"
 "http://www.w3.org/TR/2001/REC-SVG-20010904/DTD/svg10.dtd">
<svg version="1.0" xmlns="http://www.w3.org/2000/svg"
 width="1350.000000pt" height="586.000000pt" viewBox="0 0 1350.000000 586.000000"
 preserveAspectRatio="xMidYMid meet">

<g transform="translate(0.000000,586.000000) scale(0.100000,-0.100000)"
fill="#000000" stroke="none">
<path d="M0 5850 c0 -7 283 -10 829 -10 820 0 829 0 834 -20 3 -11 11 -20 19
-19 10 0 10 2 1 6 -18 7 -16 33 1 33 8 0 17 -6 19 -12 4 -10 6 -10 6 0 1 6 8
12 17 12 11 0 15 -6 11 -20 -3 -11 -1 -18 4 -14 5 3 9 12 9 20 0 12 248 14
1923 14 8124 -1 9827 1 9827 10 0 7 -2257 10 -6750 10 -4493 0 -6750 -3 -6750
-10z"/>
<path d="M9206 5088 c-21 -29 -20 -87 0 -116 13 -19 24 -22 57 -20 41 3 42 4
45 41 3 34 1 37 -22 37 -14 0 -26 -4 -26 -10 0 -5 9 -10 21 -10 15 0 20 -5 17
-22 -5 -36 -61 -38 -84 -3 -19 29 -14 93 8 107 22 13 57 9 67 -9 5 -10 13 -15
17 -11 14 14 -19 38 -52 38 -23 0 -38 -7 -48 -22z"/>
<path d="M9366 5088 c-9 -12 -16 -38 -16 -58 0 -51 24 -80 64 -80 44 0 61 22
61 82 0 38 -5 53 -19 64 -30 21 -72 18 -90 -8z m84 -7 c14 -27 13 -94 -2 -109
-17 -17 -53 -15 -69 4 -7 9 -14 33 -14 54 0 21 7 45 14 54 18 22 58 20 71 -3z"/>
<path d="M9521 5028 c1 -56 4 -72 8 -48 4 26 12 36 28 38 18 3 27 -5 40 -32 9
-20 20 -36 25 -36 12 0 10 10 -11 39 -20 27 -20 28 0 44 39 34 11 77 -52 77
l-39 0 1 -82z m84 37 c0 -28 -3 -30 -35 -30 -26 0 -36 5 -38 18 -7 34 6 48 40
45 29 -3 33 -6 33 -33z"/>
<path d="M9720 5056 c0 -82 12 -106 54 -106 48 0 66 28 66 102 0 84 -19 71
-22 -14 l-3 -73 -35 0 -35 0 -3 73 c-3 83 -22 99 -22 18z"/>
<path d="M9880 5028 c0 -92 17 -98 22 -8 l3 55 40 -63 c22 -34 43 -62 48 -62
4 0 6 37 5 83 -2 76 -2 77 -5 20 -2 -35 -7 -63 -11 -63 -4 0 -24 27 -45 60
-20 33 -42 60 -47 60 -6 0 -10 -34 -10 -82z"/>
<path d="M10064 5063 c14 -29 27 -67 27 -85 l1 -33 7 35 c4 19 20 56 35 83 15
26 24 47 18 47 -5 0 -17 -18 -27 -40 -10 -22 -21 -40 -25 -40 -4 0 -13 13 -20
30 -7 16 -19 35 -27 42 -10 8 -5 -8 11 -39z"/>
<path d="M5143 4950 c0 -47 2 -73 4 -58 2 14 11 32 20 39 16 14 16 14 59 -45
7 -11 16 -18 18 -15 3 3 -8 22 -25 42 -31 38 -31 45 4 85 11 12 17 22 13 22
-3 0 -20 -16 -37 -35 -17 -19 -35 -35 -39 -35 -5 0 -11 19 -13 43 -2 23 -4 4
-4 -43z"/>
<path d="M5300 5010 c-27 -27 -16 -46 36 -69 24 -11 44 -26 44 -33 0 -20 -21
-38 -44 -39 -17 -1 -17 -2 -4 -6 27 -7 58 15 58 41 0 18 -10 29 -45 45 -30 14
-45 27 -45 40 0 27 36 36 65 17 28 -19 32 -15 9 8 -21 22 -50 20 -74 -4z"/>
<path d="M5446 5017 c-28 -21 -17 -58 21 -71 48 -16 60 -32 45 -56 -7 -11 -8
-20 -3 -20 16 0 23 20 17 44 -4 15 -20 28 -46 39 -42 16 -50 36 -24 58 13 11
21 11 44 -3 21 -12 27 -13 24 -3 -3 7 -15 16 -27 19 -30 8 -31 8 -51 -7z"/>
<path d="M5700 4960 c-5 -67 -7 -76 -30 -87 -15 -8 -19 -13 -9 -13 8 0 23 6
33 13 14 10 16 25 14 87 l-4 75 -4 -75z"/>
<path d="M6223 4950 c0 -47 1 -76 4 -65 8 34 20 37 41 11 11 -14 23 -26 27
-26 3 0 -3 12 -14 26 -25 32 -26 42 -4 68 10 12 3 8 -14 -8 l-32 -29 -4 54
c-2 36 -4 25 -4 -31z"/>
<path d="M4991 4943 c1 -50 4 -67 8 -48 5 25 12 31 41 35 46 8 60 17 60 40 0
41 -11 50 -61 50 l-49 0 1 -77z m96 51 c10 -27 -11 -49 -48 -49 -31 0 -34 3
-37 33 -3 31 -2 32 38 32 28 0 43 -5 47 -16z"/>
<path d="M6550 4996 c0 -8 -5 -16 -12 -18 -8 -3 -7 -6 3 -10 7 -3 21 -2 29 1
14 5 14 8 -2 24 -14 13 -18 14 -18 3z"/>
<path d="M5766 4958 c-20 -28 -20 -49 -1 -74 14 -18 14 -17 5 9 -14 39 -13 44
10 67 11 11 16 20 11 20 -6 0 -17 -10 -25 -22z"/>
<path d="M5824 4967 c27 -20 18 -78 -14 -94 -18 -9 -20 -13 -7 -13 9 0 26 9
38 21 31 31 14 98 -25 99 -6 0 -2 -6 8 -13z"/>
<path d="M5902 4968 c-30 -30 -4 -109 36 -107 12 0 11 3 -5 9 -46 18 -37 105
10 98 20 -3 22 -10 24 -63 0 -33 -4 -66 -9 -72 -7 -9 -7 -13 0 -13 15 0 22 26
22 90 0 44 -4 59 -16 64 -25 9 -49 7 -62 -6z"/>
<path d="M6030 4903 c-3 -45 -1 -78 3 -74 4 4 7 41 5 82 l-3 74 -5 -82z"/>
<path d="M6095 4970 c-3 -6 1 -7 9 -4 18 7 21 14 7 14 -6 0 -13 -4 -16 -10z"/>
<path d="M6148 4969 c15 -16 16 -71 0 -87 -9 -9 -8 -12 5 -12 25 0 25 95 0
105 -15 5 -16 4 -5 -6z"/>
<path d="M6345 4969 c-11 -16 -1 -19 13 -3 7 8 8 14 3 14 -5 0 -13 -5 -16 -11z"/>
<path d="M6393 4969 c20 -12 23 -69 5 -87 -9 -9 -8 -12 5 -12 24 0 25 95 1
104 -24 9 -31 7 -11 -5z"/>
<path d="M6460 4923 c0 -29 5 -53 10 -53 6 0 10 20 10 45 0 38 4 47 23 54 19
8 18 9 -10 9 l-33 -1 0 -54z"/>
<path d="M6637 4973 c-4 -3 -7 -11 -7 -17 0 -6 4 -5 9 2 4 8 19 12 32 10 19
-2 25 -10 27 -36 2 -18 -1 -39 -7 -46 -8 -9 -7 -13 4 -13 19 0 21 77 3 95 -13
13 -50 16 -61 5z"/>
<path d="M6551 4927 c-1 -33 15 -67 32 -67 8 0 8 3 -2 9 -8 5 -17 26 -21 47
-6 33 -8 34 -9 11z"/>
<path d="M6092 4918 c-18 -18 -15 -36 7 -48 31 -16 35 -12 10 10 -24 20 -24
20 -5 35 11 8 15 15 10 15 -6 0 -15 -5 -22 -12z"/>
<path d="M6340 4911 c-7 -15 -6 -23 6 -35 8 -9 20 -16 26 -16 6 0 0 8 -12 18
-21 17 -21 19 -5 35 9 9 12 17 6 17 -6 0 -15 -9 -21 -19z"/>
<path d="M6632 4918 c-18 -18 -15 -36 7 -48 30 -16 36 -12 11 8 -21 17 -21 19
-5 35 9 9 13 17 8 17 -5 0 -14 -5 -21 -12z"/>
<path d="M5280 4903 c0 -6 8 -17 18 -24 16 -13 16 -13 2 6 -8 11 -16 22 -17
24 -2 2 -3 0 -3 -6z"/>
<path d="M5420 4903 c0 -6 8 -17 18 -24 16 -13 16 -13 2 6 -8 11 -16 22 -17
24 -2 2 -3 0 -3 -6z"/>
<path d="M5620 4891 c0 -6 4 -13 10 -16 6 -3 7 1 4 9 -7 18 -14 21 -14 7z"/>
<path d="M5468 4863 c7 -3 16 -2 19 1 4 3 -2 6 -13 5 -11 0 -14 -3 -6 -6z"/>
<path d="M11982 4663 c-2 -30 -5 -33 -36 -33 -37 0 -46 -12 -46 -60 0 -39 26
-63 59 -55 14 4 27 8 29 10 2 1 1 40 -1 86 -1 46 -4 69 -5 52z m-4 -90 c3 -35
0 -42 -18 -48 -28 -9 -50 11 -50 44 0 33 18 53 45 49 16 -2 21 -12 23 -45z"/>
<path d="M11566 4664 c-30 -29 -17 -53 38 -71 39 -12 54 -36 37 -57 -19 -22
-47 -20 -71 6 -15 17 -20 18 -20 6 0 -9 14 -21 31 -28 39 -17 79 2 79 37 0 19
-10 28 -46 43 -37 16 -45 24 -42 42 4 29 43 36 69 12 23 -21 26 -12 3 10 -8 9
-26 16 -39 16 -13 0 -31 -7 -39 -16z"/>
<path d="M12424 4610 c1 -70 3 -75 28 -89 21 -12 31 -13 52 -3 25 11 26 15 24
89 l-1 78 -6 -70 c-7 -77 -14 -95 -39 -95 -37 0 -47 18 -53 92 l-6 73 1 -75z"/>
<path d="M12582 4593 c2 -83 2 -84 5 -20 2 37 7 67 11 67 4 0 25 -29 47 -64
22 -35 43 -62 48 -59 4 2 6 41 5 86 l-2 82 -3 -67 c-2 -38 -7 -68 -11 -68 -4
0 -25 29 -47 65 -22 36 -43 65 -47 65 -4 0 -7 -39 -6 -87z"/>
<path d="M12761 4628 c16 -29 29 -68 29 -86 0 -20 4 -31 10 -27 6 3 10 22 10
42 0 21 11 55 25 80 14 23 22 43 17 43 -5 0 -15 -13 -22 -30 -22 -53 -36 -56
-62 -11 -13 23 -26 41 -30 41 -3 0 7 -24 23 -52z"/>
<path d="M11700 4646 c0 -8 -6 -17 -12 -19 -10 -4 -10 -6 0 -6 7 -1 12 -16 12
-40 0 -50 8 -71 28 -71 13 0 13 2 -1 18 -20 22 -23 89 -4 94 9 2 8 8 -5 21
-14 13 -18 14 -18 3z"/>
<path d="M11780 4620 c-8 -5 -10 -10 -5 -10 6 0 17 5 25 10 8 5 11 10 5 10 -5
0 -17 -5 -25 -10z"/>
<path d="M11832 4620 c18 -11 22 -66 6 -86 -5 -8 -3 -14 7 -18 12 -4 15 3 15
38 0 56 -8 76 -29 76 -15 -1 -15 -1 1 -10z"/>
<path d="M12043 4570 c0 -36 2 -50 4 -32 2 17 2 47 0 65 -2 17 -4 3 -4 -33z"/>
<path d="M12102 4618 c-18 -18 -14 -73 6 -91 38 -34 82 -9 82 47 0 39 -15 56
-50 56 -14 0 -31 -5 -38 -12z m72 -20 c14 -23 -4 -72 -29 -76 -36 -7 -61 58
-33 86 17 17 48 11 62 -10z"/>
<path d="M12232 4568 c0 -35 3 -48 5 -28 7 73 12 81 41 78 25 -3 27 -7 33 -58
l6 -55 1 47 c3 68 -4 78 -49 78 l-39 0 2 -62z"/>
<path d="M11773 4564 c-8 -21 9 -48 33 -53 16 -3 15 0 -6 18 -24 21 -25 21 -6
36 18 13 18 15 3 15 -10 0 -20 -7 -24 -16z"/>
<path d="M9198 4398 c4 -103 10 -108 11 -10 1 45 -2 82 -7 82 -4 0 -6 -33 -4
-72z"/>
<path d="M9929 4443 c0 -16 -1 -52 -2 -81 -1 -28 1 -52 6 -52 4 0 7 36 7 80 0
44 -2 80 -5 80 -3 0 -5 -12 -6 -27z"/>
<path d="M8929 4385 c15 -41 30 -77 33 -81 4 -3 14 11 24 32 26 61 44 124 35
124 -5 0 -16 -27 -25 -60 -9 -32 -21 -62 -25 -65 -5 -2 -19 24 -32 60 -12 36
-26 65 -30 65 -4 0 5 -34 20 -75z"/>
<path d="M9505 4441 c-9 -29 4 -49 40 -61 45 -15 61 -35 45 -55 -16 -20 -49
-19 -72 2 -11 10 -18 12 -18 4 0 -17 45 -34 74 -27 29 7 43 41 26 61 -6 8 -27
19 -46 25 -26 9 -34 17 -34 35 0 14 7 25 18 28 13 4 12 5 -5 6 -13 1 -24 -6
-28 -18z"/>
<path d="M9570 4453 c8 -4 20 -13 27 -22 7 -9 13 -11 13 -5 0 15 -22 34 -39
33 -14 0 -14 -1 -1 -6z"/>
<path d="M9651 4438 c0 -9 -9 -19 -18 -21 -16 -4 -16 -5 -1 -6 13 -1 18 -13
20 -53 2 -44 6 -53 23 -56 18 -2 18 -2 3 8 -13 8 -18 24 -18 55 0 33 4 45 18
48 15 4 15 5 0 6 -9 0 -19 9 -21 19 -4 15 -5 15 -6 0z"/>
<path d="M9070 4405 c-9 -10 -9 -15 -1 -15 6 0 11 5 11 10 0 11 49 14 51 3 7
-46 7 -69 -2 -79 -6 -8 -5 -14 6 -18 12 -4 15 4 15 42 0 27 -5 53 -12 60 -17
17 -53 15 -68 -3z"/>
<path d="M9253 4360 c0 -36 2 -50 4 -32 2 17 2 47 0 65 -2 17 -4 3 -4 -33z"/>
<path d="M9317 4402 c-21 -23 -22 -66 -1 -82 13 -12 14 -10 3 13 -18 40 2 79
39 75 24 -3 27 -8 30 -44 3 -38 0 -43 -25 -52 -17 -7 -21 -11 -10 -11 22 -1
57 34 57 57 0 52 -60 80 -93 44z"/>
<path d="M9722 4374 c-2 -59 10 -75 56 -71 l32 2 -2 60 -1 60 -6 -49 c-11 -89
-67 -87 -74 2 l-3 47 -2 -51z"/>
<path d="M9862 4408 c-21 -21 -15 -86 9 -98 11 -6 25 -9 32 -6 7 2 4 5 -5 5
-43 2 -47 84 -5 101 21 8 21 9 2 9 -12 1 -26 -4 -33 -11z"/>
<path d="M9993 4360 c0 -36 2 -50 4 -32 2 17 2 47 0 65 -2 17 -4 3 -4 -33z"/>
<path d="M10056 4404 c-33 -33 -10 -104 33 -104 31 0 54 25 54 60 0 52 -53 79
-87 44z m63 -8 c31 -37 -9 -103 -46 -80 -37 23 -24 94 17 94 10 0 23 -6 29
-14z"/>
<path d="M10193 4414 c-26 -11 -14 -42 22 -54 37 -12 46 -36 19 -47 -9 -3 -25
-1 -35 6 -11 6 -19 7 -19 2 0 -14 37 -23 60 -16 33 10 25 44 -15 61 -19 8 -35
19 -35 24 0 18 32 24 52 11 16 -10 19 -10 16 1 -5 14 -44 21 -65 12z"/>
<path d="M9072 4358 c-19 -19 -14 -46 9 -53 11 -4 23 -4 26 -1 4 3 -1 6 -9 6
-24 0 -32 32 -12 47 10 7 13 13 8 13 -6 0 -15 -5 -22 -12z"/>
<path d="M431 3253 c-1 -68 19 -103 59 -103 39 0 60 35 60 100 0 33 -4 60 -10
60 -6 0 -10 -28 -10 -63 0 -64 -11 -87 -39 -87 -34 0 -44 19 -51 87 l-7 68 -2
-62z"/>
<path d="M592 3228 c1 -64 3 -70 5 -28 6 88 10 90 59 17 24 -37 47 -67 49 -67
3 0 4 37 3 83 -2 76 -2 77 -5 20 -2 -35 -7 -63 -11 -63 -4 0 -24 27 -44 60
-20 33 -42 60 -48 60 -6 0 -9 -31 -8 -82z"/>
<path d="M760 3229 c0 -51 4 -78 10 -74 6 3 10 40 10 81 0 43 -4 74 -10 74 -6
0 -10 -34 -10 -81z"/>
<path d="M837 3292 c-28 -31 -17 -132 14 -132 6 0 3 10 -5 22 -22 31 -20 84 4
108 11 11 16 20 12 20 -5 0 -16 -8 -25 -18z"/>
<path d="M911 3289 c11 -11 23 -18 26 -15 9 8 -17 36 -33 36 -10 0 -7 -7 7
-21z"/>
<path d="M990 3295 c-6 -8 -12 -35 -13 -61 0 -38 4 -51 22 -66 13 -10 31 -18
40 -17 10 0 7 4 -9 10 -13 6 -28 15 -32 22 -14 22 -9 90 9 109 9 10 11 18 6
18 -6 0 -16 -7 -23 -15z"/>
<path d="M1070 3290 c24 -24 26 -77 4 -108 -18 -26 -12 -29 10 -6 30 29 10
134 -25 134 -5 0 0 -9 11 -20z"/>
<path d="M1140 3236 c0 -41 5 -78 10 -81 6 -4 10 8 10 29 0 31 3 36 23 36 17
0 28 -10 41 -36 9 -20 19 -34 22 -31 3 3 -2 19 -11 37 -15 29 -15 33 -1 49 35
39 12 71 -51 71 l-43 0 0 -74z m94 41 c9 -15 7 -21 -8 -33 -11 -8 -30 -14 -43
-14 -20 0 -23 5 -23 36 0 34 1 35 31 32 18 -2 37 -11 43 -21z"/>
<path d="M1292 3228 l2 -83 3 68 c2 37 7 67 11 67 4 0 23 -25 41 -55 55 -91
61 -90 59 6 -2 76 -2 78 -5 22 -2 -35 -7 -63 -11 -63 -4 0 -24 27 -46 60 -21
33 -42 60 -47 60 -5 0 -8 -37 -7 -82z"/>
<path d="M1590 3241 c0 -54 -4 -70 -16 -75 -24 -9 -31 -8 -48 10 -9 8 -16 11
-16 5 0 -20 41 -34 66 -22 22 10 24 17 24 81 0 38 -2 70 -5 70 -3 0 -5 -31 -5
-69z"/>
<path d="M1662 3298 c-7 -7 -12 -36 -12 -64 0 -43 4 -56 22 -68 30 -21 54 -20
78 4 38 38 19 140 -26 140 -4 0 2 -7 14 -16 45 -31 21 -134 -31 -134 -43 0
-63 94 -27 130 13 13 15 20 7 20 -7 0 -18 -5 -25 -12z"/>
<path d="M1820 3284 c-16 -40 -12 -80 10 -105 l20 -24 -16 33 c-19 39 -12 96
14 111 16 10 16 10 -1 11 -10 0 -22 -11 -27 -26z"/>
<path d="M1900 3295 c7 -8 17 -15 22 -15 6 0 5 7 -2 15 -7 8 -17 15 -22 15 -6
0 -5 -7 2 -15z"/>
<path d="M2052 3250 c-1 -37 -7 -71 -14 -78 -17 -17 -45 -15 -57 5 -5 10 -12
15 -16 12 -9 -10 24 -39 44 -39 41 0 52 22 48 95 l-3 70 -2 -65z"/>
<path d="M2132 3258 c-11 -29 -24 -66 -27 -83 l-6 -30 16 28 c12 21 23 27 51
27 28 0 36 -5 45 -26 5 -15 12 -25 14 -22 2 2 -6 31 -19 63 -13 33 -26 68 -29
78 -10 29 -22 19 -45 -35z m44 -3 c19 -45 19 -45 -17 -45 -24 0 -30 3 -25 16
3 9 9 27 12 40 8 32 12 30 30 -11z"/>
<path d="M1898 3223 c15 -3 22 -11 22 -28 0 -19 -7 -27 -32 -34 -18 -5 -25
-10 -15 -10 34 -2 57 18 57 49 0 26 -3 30 -27 29 -24 -2 -25 -2 -5 -6z"/>
<path d="M916 3174 c-5 -14 -4 -15 9 -4 17 14 19 20 6 20 -5 0 -12 -7 -15 -16z"/>
<path d="M878 3153 c7 -3 16 -2 19 1 4 3 -2 6 -13 5 -11 0 -14 -3 -6 -6z"/>
<path d="M6020 2830 c0 -46 3 -80 7 -76 8 8 7 146 -1 154 -4 3 -6 -32 -6 -78z"/>
<path d="M5093 2825 c0 -44 2 -61 4 -37 2 23 2 59 0 80 -2 20 -4 1 -4 -43z"/>
<path d="M5156 2893 c7 -4 14 -17 17 -28 5 -16 5 -15 4 4 -1 14 -9 26 -17 28
-10 3 -11 2 -4 -4z"/>
<path d="M5910 2890 c0 -5 7 -10 16 -10 8 0 12 5 9 10 -3 6 -10 10 -16 10 -5
0 -9 -4 -9 -10z"/>
<path d="M6552 2893 c26 -4 27 -7 31 -76 l3 -72 2 72 c2 70 3 72 30 76 15 2 0
4 -33 4 -33 0 -48 -2 -33 -4z"/>
<path d="M7501 2878 c0 -10 -7 -18 -13 -18 -10 0 -10 -2 -1 -8 6 -4 13 -25 16
-47 l4 -40 1 42 c2 30 7 43 20 46 15 4 15 5 0 6 -9 0 -19 9 -21 19 -4 16 -5
16 -6 0z"/>
<path d="M5398 2853 c7 -3 16 -2 19 1 4 3 -2 6 -13 5 -11 0 -14 -3 -6 -6z"/>
<path d="M5493 2805 c0 -33 2 -45 4 -27 2 18 2 45 0 60 -2 15 -4 0 -4 -33z"/>
<path d="M5598 2850 c18 -8 22 -18 24 -57 1 -39 2 -42 5 -14 7 53 -4 81 -30
80 l-22 0 23 -9z"/>
<path d="M5708 2853 c7 -3 16 -2 19 1 4 3 -2 6 -13 5 -11 0 -14 -3 -6 -6z"/>
<path d="M6068 2853 c7 -3 16 -2 19 1 4 3 -2 6 -13 5 -11 0 -14 -3 -6 -6z"/>
<path d="M6300 2845 c-6 -8 -10 -20 -7 -27 3 -8 6 -6 6 5 1 10 11 22 24 27 15
6 17 9 6 9 -9 1 -22 -6 -29 -14z"/>
<path d="M6423 2805 c0 -33 2 -45 4 -27 2 18 2 45 0 60 -2 15 -4 0 -4 -33z"/>
<path d="M6680 2805 c0 -32 2 -56 4 -54 8 7 10 98 3 105 -4 4 -7 -19 -7 -51z"/>
<path d="M6891 2805 l2 -60 7 50 c4 28 3 54 -1 60 -5 5 -8 -16 -8 -50z"/>
<path d="M6945 2851 c15 -6 22 -20 26 -57 l6 -49 1 51 c2 52 -7 65 -41 63 -7
0 -3 -4 8 -8z"/>
<path d="M7029 2843 c-13 -16 -12 -17 4 -4 9 7 17 15 17 17 0 8 -8 3 -21 -13z"/>
<path d="M7077 2849 c7 -7 15 -10 18 -7 3 3 -2 9 -12 12 -14 6 -15 5 -6 -5z"/>
<path d="M7140 2780 c0 -46 3 -81 6 -77 8 8 9 145 1 154 -4 3 -7 -31 -7 -77z"/>
<path d="M7200 2847 c35 -17 40 -69 8 -91 -12 -9 -18 -16 -12 -16 6 0 18 8 27
18 32 35 14 102 -26 102 -21 0 -21 -1 3 -13z"/>
<path d="M7290 2845 c-19 -22 -8 -25 13 -3 9 10 13 18 8 18 -5 0 -14 -7 -21
-15z"/>
<path d="M7331 2857 c2 -1 13 -9 24 -17 19 -14 19 -14 6 3 -7 9 -18 17 -24 17
-6 0 -8 -1 -6 -3z"/>
<path d="M7420 2805 c0 -32 2 -56 4 -54 8 7 10 98 3 105 -4 4 -7 -19 -7 -51z"/>
<path d="M5305 2831 c7 -22 5 -23 -39 -20 -38 4 -46 1 -46 -13 0 -9 4 -20 10
-23 6 -3 7 1 4 9 -5 13 2 16 40 16 47 0 56 10 35 40 -8 12 -9 10 -4 -9z"/>
<path d="M5360 2839 c0 -5 5 -7 10 -4 6 3 10 8 10 11 0 2 -4 4 -10 4 -5 0 -10
-5 -10 -11z"/>
<path d="M5553 2800 c0 -30 2 -43 4 -27 2 15 2 39 0 55 -2 15 -4 2 -4 -28z"/>
<path d="M5677 2843 c-14 -13 -7 -71 11 -84 15 -13 16 -12 3 3 -8 10 -12 32
-9 53 4 38 4 38 -5 28z"/>
<path d="M5745 2840 c3 -5 8 -10 11 -10 2 0 4 5 4 10 0 6 -5 10 -11 10 -5 0
-7 -4 -4 -10z"/>
<path d="M6107 2818 c4 -25 1 -44 -8 -55 -13 -16 -12 -17 4 -4 18 15 22 57 7
81 -6 10 -8 3 -3 -22z"/>
<path d="M6355 2840 c3 -5 8 -10 11 -10 2 0 4 5 4 10 0 6 -5 10 -11 10 -5 0
-7 -4 -4 -10z"/>
<path d="M6838 2794 c-2 -19 0 -37 4 -40 4 -3 8 13 8 35 0 51 -6 53 -12 5z"/>
<path d="M5876 2794 c-8 -22 -4 -25 11 -9 7 8 9 16 4 19 -5 3 -12 -1 -15 -10z"/>
<path d="M5950 2803 c0 -5 8 -17 17 -28 14 -18 15 -18 9 -2 -3 10 -6 23 -6 28
0 5 -4 9 -10 9 -5 0 -10 -3 -10 -7z"/>
<path d="M7088 2773 c5 -21 7 -23 10 -9 2 10 0 22 -6 28 -6 6 -7 0 -4 -19z"/>
<path d="M6290 2776 c0 -8 4 -17 9 -20 5 -4 7 3 4 14 -6 23 -13 26 -13 6z"/>
<path d="M5166 2763 c-6 -14 -5 -15 5 -6 7 7 10 15 7 18 -3 3 -9 -2 -12 -12z"/>
<path d="M5745 2760 c-3 -5 -1 -10 4 -10 6 0 11 5 11 10 0 6 -2 10 -4 10 -3 0
-8 -4 -11 -10z"/>
<path d="M6172 2754 c10 -10 20 -16 22 -13 3 3 -5 11 -17 18 -21 13 -21 12 -5
-5z"/>
<path d="M7517 2749 c7 -7 15 -10 18 -7 3 3 -2 9 -12 12 -14 6 -15 5 -6 -5z"/>
<path d="M9143 2650 c0 -47 2 -66 4 -42 2 23 2 61 0 85 -2 23 -4 4 -4 -43z"/>
<path d="M9410 2702 c0 -26 -3 -28 -34 -24 -39 5 -48 -5 -49 -55 -1 -34 21
-63 47 -63 6 0 1 7 -11 15 -41 29 -34 95 11 95 33 0 51 -61 26 -86 -7 -7 -6
-11 5 -11 12 0 15 15 15 79 0 43 -2 78 -5 78 -3 0 -5 -13 -5 -28z"/>
<path d="M10151 2698 c-1 -10 -7 -18 -13 -18 -10 0 -10 -2 -1 -8 6 -4 13 -29
15 -56 2 -33 8 -51 18 -54 12 -4 13 -2 3 9 -7 7 -13 32 -13 56 0 28 4 43 13
43 8 0 9 3 1 8 -6 4 -14 14 -17 22 -4 12 -6 11 -6 -2z"/>
<path d="M9202 2620 l1 -55 6 50 c5 45 9 50 33 53 29 3 33 -3 41 -73 3 -21 4
-16 5 15 2 59 -7 71 -51 68 l-37 -2 2 -56z"/>
<path d="M9472 2668 c-22 -28 -22 -55 -1 -81 11 -15 28 -27 37 -27 12 0 9 4
-8 13 -32 16 -41 74 -14 94 10 7 13 13 7 13 -6 0 -15 -6 -21 -12z"/>
<path d="M9528 2664 c25 -17 30 -61 10 -84 -11 -12 -10 -12 5 -1 31 24 15 101
-21 101 -13 0 -12 -3 6 -16z"/>
<path d="M9602 2621 l1 -56 6 50 c5 43 9 50 30 53 29 5 40 -11 42 -63 2 -39 2
-38 8 10 5 45 8 50 31 50 23 0 26 -5 31 -50 l6 -50 -1 55 -1 55 -77 1 -78 1 2
-56z"/>
<path d="M9815 2670 c-3 -6 1 -7 9 -4 18 7 21 14 7 14 -6 0 -13 -4 -16 -10z"/>
<path d="M9868 2669 c15 -16 16 -71 2 -85 -7 -7 -6 -11 5 -11 22 0 17 98 -5
105 -12 4 -13 2 -2 -9z"/>
<path d="M9942 2620 c1 -53 2 -53 5 -10 2 25 11 50 20 57 13 10 13 12 -6 10
-19 -1 -21 -7 -19 -57z"/>
<path d="M10020 2661 c-5 -11 -10 -29 -10 -40 0 -26 34 -61 58 -60 13 0 12 2
-5 9 -12 5 -27 18 -33 29 -10 20 -8 21 35 21 46 0 53 7 35 41 -7 12 -21 19
-40 19 -19 0 -33 -7 -40 -19z m68 -13 c3 -14 -3 -18 -27 -18 -29 0 -41 17 -24
34 13 13 48 1 51 -16z"/>
<path d="M1342 2566 c-1 -49 1 -86 5 -82 4 4 6 23 4 42 -3 40 12 64 40 64 46
0 43 -94 -3 -103 -22 -5 -22 -5 2 -4 15 1 30 12 40 30 13 24 13 30 -1 55 -12
21 -22 27 -47 26 -28 -2 -31 2 -35 30 -2 17 -5 -9 -5 -58z"/>
<path d="M1790 2565 c0 -49 2 -86 5 -83 7 7 8 158 1 165 -3 4 -6 -33 -6 -82z"/>
<path d="M300 2631 c0 -18 40 -151 45 -151 3 0 12 26 21 58 9 31 19 61 24 65
4 4 15 -22 25 -58 13 -49 21 -63 29 -55 7 7 8 13 0 18 -5 4 -18 35 -29 70 -10
34 -21 62 -24 62 -4 0 -12 -21 -20 -47 -24 -89 -27 -93 -40 -48 -6 22 -11 47
-11 55 0 20 -20 51 -20 31z"/>
<path d="M465 2610 c-4 -17 -5 -34 -2 -36 3 -3 8 9 12 26 4 17 5 34 2 36 -3 3
-8 -9 -12 -26z"/>
<path d="M1070 2560 l0 -80 31 0 c17 0 39 5 50 10 23 13 26 58 4 67 -14 5 -14
7 0 23 27 30 4 60 -45 60 l-40 0 0 -80z m75 40 c0 -21 -5 -26 -32 -28 -31 -3
-33 -1 -33 28 0 29 2 31 33 28 27 -2 32 -7 32 -28z m4 -58 c14 -27 -5 -52 -39
-52 -28 0 -30 3 -30 35 0 32 2 35 30 35 18 0 33 -7 39 -18z"/>
<path d="M1654 2626 c-11 -29 2 -51 41 -72 49 -25 55 -57 12 -62 -17 -2 -37 4
-48 14 -18 16 -19 16 -13 1 12 -33 78 -36 98 -4 15 24 -2 48 -45 62 -36 13
-48 37 -29 60 9 11 9 15 1 15 -6 0 -14 -6 -17 -14z"/>
<path d="M1710 2636 c0 -2 7 -7 16 -10 8 -3 12 -2 9 4 -6 10 -25 14 -25 6z"/>
<path d="M9812 2618 c-18 -18 -15 -36 7 -48 31 -16 35 -12 10 9 -20 16 -21 21
-10 35 16 19 11 22 -7 4z"/>
<path d="M523 2540 c0 -36 2 -50 4 -32 2 17 2 47 0 65 -2 17 -4 3 -4 -33z"/>
<path d="M582 2533 c-1 -50 -7 -76 -18 -87 -14 -14 -14 -16 0 -16 21 0 28 32
23 110 l-3 65 -2 -72z"/>
<path d="M668 2593 c7 -3 16 -2 19 1 4 3 -2 6 -13 5 -11 0 -14 -3 -6 -6z"/>
<path d="M752 2585 c3 -11 14 -42 24 -68 l19 -49 -25 -20 c-22 -18 -22 -20 -5
-17 14 3 26 23 43 68 12 35 21 69 19 75 -3 6 -9 -5 -14 -24 -12 -43 -25 -42
-38 3 -5 20 -14 39 -19 44 -5 4 -7 0 -4 -12z"/>
<path d="M880 2585 c-9 -10 -9 -15 -1 -15 6 0 11 5 11 10 0 6 11 10 25 10 14
0 25 -2 25 -4 0 -2 3 -11 6 -19 4 -11 -2 -17 -23 -20 l-28 -4 28 -2 c30 -1 36
-21 12 -41 -22 -18 -50 -8 -49 18 0 14 -3 19 -9 13 -5 -5 -7 -17 -5 -27 3 -15
13 -19 46 -19 l42 -1 0 39 c0 21 -5 47 -10 58 -13 23 -52 25 -70 4z"/>
<path d="M1219 2583 c-13 -15 -12 -15 9 -2 18 11 26 11 42 1 11 -7 20 -8 20
-3 0 10 -24 21 -45 21 -7 0 -19 -7 -26 -17z"/>
<path d="M1481 2543 c23 -69 23 -77 2 -99 -12 -12 -13 -16 -4 -13 18 6 23 16
54 102 14 37 22 67 17 67 -4 0 -13 -20 -20 -45 -7 -25 -16 -45 -20 -45 -4 0
-12 18 -19 40 -6 21 -15 41 -20 44 -4 3 0 -20 10 -51z"/>
<path d="M1835 2591 c15 -6 22 -21 26 -57 l6 -49 -1 55 c-1 51 -3 55 -26 57
-22 2 -23 2 -5 -6z"/>
<path d="M1970 2587 c20 -10 25 -20 25 -52 0 -36 -3 -40 -28 -43 -23 -3 -30 2
-42 30 -8 18 -14 26 -15 18 0 -26 30 -60 54 -60 32 0 46 19 46 60 0 41 -14 60
-44 60 -19 0 -18 -2 4 -13z"/>
<path d="M2050 2516 c0 -51 4 -86 10 -86 6 0 10 13 10 29 0 25 3 28 27 23 18
-3 30 1 40 13 28 40 6 106 -35 104 -12 0 -11 -3 5 -9 26 -11 41 -56 26 -79 -6
-9 -21 -16 -34 -16 -22 0 -24 4 -25 49 0 28 -6 52 -12 54 -9 3 -12 -21 -12
-82z"/>
<path d="M700 2573 c0 -14 -7 -23 -22 -26 l-23 -4 23 -2 c35 -2 27 -46 -8 -46
-20 0 -25 5 -24 23 0 14 -3 19 -9 13 -5 -5 -7 -17 -5 -27 2 -15 13 -19 46 -20
l42 -2 0 42 c0 22 -5 48 -10 56 -8 12 -10 11 -10 -7z"/>
<path d="M1925 2579 c-4 -6 -5 -12 -2 -15 2 -3 7 2 10 11 7 17 1 20 -8 4z"/>
<path d="M452 2540 c0 -14 2 -19 5 -12 2 6 2 18 0 25 -3 6 -5 1 -5 -13z"/>
<path d="M1265 2550 l-30 -8 28 -1 c28 -1 35 -19 15 -39 -9 -9 -8 -12 5 -12
13 0 17 9 17 35 0 19 -1 34 -2 34 -2 -1 -16 -5 -33 -9z"/>
<path d="M1214 2525 c-10 -24 4 -45 28 -44 l23 0 -24 10 c-17 7 -22 15 -18 29
6 23 -1 27 -9 5z"/>
<path d="M9564 2415 c0 -49 1 -71 3 -48 2 23 2 64 0 90 -2 26 -3 8 -3 -42z"/>
<path d="M9963 2415 c0 -69 2 -78 6 -40 5 43 9 50 30 53 44 7 57 -53 19 -88
-12 -11 -17 -20 -10 -20 17 0 42 42 42 72 0 44 -47 76 -67 46 -5 -8 -10 1 -14
27 -4 26 -6 8 -6 -50z"/>
<path d="M8650 2410 c0 -47 4 -80 10 -80 6 0 10 13 10 29 0 25 5 30 28 34 l27
4 -27 2 c-26 1 -28 4 -28 42 0 39 1 40 31 37 41 -4 59 -30 41 -59 -11 -18 -11
-20 0 -17 7 3 15 17 16 33 5 37 -19 55 -70 55 l-38 0 0 -80z"/>
<path d="M9286 2477 c-11 -8 -19 -30 -21 -57 -4 -43 -4 -44 4 -8 4 20 13 44
21 52 18 23 57 20 70 -5 7 -11 14 -18 17 -15 11 10 -30 46 -52 46 -11 0 -29
-6 -39 -13z"/>
<path d="M9120 2452 c-10 -11 -11 -17 -2 -20 7 -2 12 -22 12 -47 0 -40 22 -77
37 -62 3 4 -2 9 -11 13 -22 8 -23 94 -1 94 8 0 15 5 15 10 0 6 -6 10 -14 10
-8 0 -16 4 -18 9 -1 5 -10 2 -18 -7z"/>
<path d="M8816 2435 c-26 -27 -29 -56 -8 -84 25 -34 42 -36 70 -11 27 26 28
64 2 90 -24 24 -43 25 -64 5z m69 -35 c8 -24 -18 -70 -40 -70 -15 0 -45 37
-45 57 0 7 9 22 20 33 24 24 54 14 65 -20z"/>
<path d="M8943 2390 c0 -36 2 -50 4 -32 2 17 2 47 0 65 -2 17 -4 3 -4 -33z"/>
<path d="M9025 2441 c-3 -5 5 -11 17 -13 19 -2 24 -11 29 -53 l6 -50 1 51 c2
49 -10 74 -34 74 -7 0 -15 -4 -19 -9z"/>
<path d="M9430 2428 c-11 -12 -20 -32 -20 -45 0 -26 32 -63 55 -63 23 0 55 37
55 63 0 26 -34 67 -55 67 -8 0 -23 -10 -35 -22z m75 -28 c7 -23 -18 -70 -37
-70 -20 0 -48 32 -48 56 0 52 70 63 85 14z"/>
<path d="M9626 2434 c-22 -21 -21 -78 2 -95 14 -11 15 -11 5 1 -22 24 -16 78
9 91 18 10 24 8 40 -11 25 -31 23 -55 -8 -79 -15 -12 -22 -21 -15 -21 20 0 51
39 51 65 0 27 -32 65 -54 65 -8 0 -22 -7 -30 -16z"/>
<path d="M9780 2440 c-12 -8 -10 -10 9 -10 13 0 30 -8 37 -17 12 -17 13 -17
14 -1 0 10 -9 22 -19 28 -24 12 -22 12 -41 0z"/>
<path d="M9855 2440 c-4 -6 5 -10 19 -10 24 0 26 -3 26 -50 0 -30 4 -50 11
-50 16 0 5 100 -12 111 -19 12 -36 11 -44 -1z"/>
<path d="M10100 2428 c-11 -12 -20 -32 -20 -45 0 -26 32 -63 55 -63 23 0 55
37 55 63 0 26 -34 67 -55 67 -8 0 -23 -10 -35 -22z m78 -37 c4 -24 -23 -61
-44 -61 -15 0 -44 38 -44 57 0 7 9 22 21 34 18 18 23 19 42 6 12 -8 23 -24 25
-36z"/>
<path d="M8991 2385 c0 -31 3 -55 9 -55 6 0 10 25 10 55 0 30 -4 55 -9 55 -4
0 -9 -25 -10 -55z"/>
<path d="M9753 2385 c0 -33 2 -45 4 -27 2 18 2 45 0 60 -2 15 -4 0 -4 -33z"/>
<path d="M9270 2360 c0 -13 49 -44 57 -36 3 3 1 6 -5 6 -7 0 -21 9 -32 20 -11
11 -20 16 -20 10z"/>
<path d="M9355 2350 c-10 -11 -13 -20 -7 -20 6 0 16 9 22 20 6 11 9 20 7 20
-2 0 -12 -9 -22 -20z"/>
<path d="M7413 1925 c0 -49 2 -77 6 -61 8 40 22 42 46 7 11 -17 21 -28 23 -26
2 2 -6 17 -19 34 l-23 31 24 25 c13 14 20 25 16 25 -5 0 -17 -11 -28 -25 -29
-37 -37 -31 -41 28 -2 29 -4 13 -4 -38z"/>
<path d="M8000 1926 c0 -48 4 -85 8 -82 8 5 5 156 -3 165 -3 2 -5 -35 -5 -83z"/>
<path d="M8559 1978 c-1 -18 -1 -48 0 -66 4 -57 -44 -86 -67 -39 -8 16 -11 17
-11 6 -1 -25 21 -39 57 -36 l32 2 0 83 c0 79 -8 116 -11 50z"/>
<path d="M7035 1988 c-2 -7 -16 -44 -29 -81 -14 -37 -21 -65 -16 -62 6 3 10
13 10 21 0 8 7 17 15 20 8 4 12 10 9 15 -7 11 17 79 28 79 4 0 8 5 8 10 0 14
-20 12 -25 -2z"/>
<path d="M7590 1919 c0 -51 4 -78 10 -74 6 3 10 19 10 36 0 43 35 39 62 -6 11
-20 22 -34 25 -32 2 2 -4 18 -14 35 -17 29 -17 31 0 50 9 10 17 24 17 30 0 22
-33 42 -71 42 l-39 0 0 -81z m88 59 c16 -16 15 -23 -4 -42 -24 -24 -61 -20
-66 7 -2 12 -3 28 0 35 5 16 54 16 70 0z"/>
<path d="M8370 1995 c0 -2 9 -19 20 -37 23 -37 25 -35 9 11 -6 17 -15 31 -20
31 -5 0 -9 -2 -9 -5z"/>
<path d="M8991 1978 c-1 -9 -7 -19 -13 -21 -10 -4 -10 -6 0 -6 7 -1 12 -16 12
-40 0 -50 8 -71 27 -71 12 0 12 2 -1 16 -19 19 -22 94 -3 94 8 0 9 3 1 8 -6 4
-14 14 -17 22 -4 12 -6 12 -6 -2z"/>
<path d="M7067 1950 c3 -14 6 -32 7 -40 1 -8 3 -17 6 -20 3 -3 11 -16 18 -30
12 -25 12 -25 6 5 -3 17 -14 48 -25 70 -10 22 -16 29 -12 15z"/>
<path d="M8340 1916 c-12 -30 -20 -61 -17 -68 2 -7 8 -1 12 15 4 15 11 27 16
27 5 0 6 6 3 14 -3 8 0 24 6 36 6 12 10 24 7 26 -2 3 -14 -20 -27 -50z"/>
<path d="M7150 1900 c0 -35 2 -61 4 -59 8 7 10 108 3 115 -4 4 -7 -21 -7 -56z"/>
<path d="M7195 1953 c11 -3 24 -10 28 -17 6 -7 7 -6 4 4 -2 8 -14 16 -28 17
-19 1 -20 1 -4 -4z"/>
<path d="M7289 1943 c-13 -15 -12 -15 7 -3 28 18 58 6 51 -20 -3 -11 -1 -23 4
-26 5 -3 5 -13 -1 -24 -7 -13 -6 -19 5 -24 21 -8 21 77 -1 98 -20 21 -48 20
-65 -1z"/>
<path d="M7743 1900 c0 -36 2 -50 4 -32 2 17 2 47 0 65 -2 17 -4 3 -4 -33z"/>
<path d="M7791 1905 l2 -60 7 50 c4 28 3 54 -1 60 -5 5 -8 -16 -8 -50z"/>
<path d="M7848 1950 c19 -8 22 -18 24 -62 l1 -53 6 50 c7 56 -1 75 -33 74 -21
0 -21 0 2 -9z"/>
<path d="M7917 1953 c23 -4 30 -19 36 -83 3 -26 4 -23 5 16 2 54 -10 75 -42
73 -19 -2 -19 -2 1 -6z"/>
<path d="M8048 1953 c47 -9 54 -85 9 -103 -16 -6 -18 -9 -5 -9 21 -1 48 36 48
65 0 26 -30 54 -56 53 -15 -1 -15 -3 4 -6z"/>
<path d="M8180 1951 c20 -5 25 -14 27 -41 1 -19 -3 -40 -8 -46 -6 -8 -4 -14 6
-18 12 -4 15 4 15 42 0 52 -13 73 -44 71 -18 -1 -17 -2 4 -8z"/>
<path d="M8493 1948 c-16 -20 -23 -48 -13 -48 5 0 10 10 12 22 2 14 13 25 28
29 22 6 22 7 4 8 -12 1 -26 -5 -31 -11z"/>
<path d="M8612 1929 c6 -16 12 -29 13 -27 6 6 -8 58 -16 58 -4 0 -3 -14 3 -31z"/>
<path d="M8669 1916 c-10 -41 -29 -64 -29 -34 0 6 -2 9 -5 6 -7 -7 5 -38 15
-38 10 0 44 99 36 107 -3 3 -10 -15 -17 -41z"/>
<path d="M8737 1942 c-35 -38 -5 -111 40 -99 15 4 14 5 -4 6 -22 1 -48 33 -36
45 3 3 24 6 45 6 21 0 38 3 38 8 0 4 -18 6 -40 4 -32 -3 -40 -1 -40 12 0 22
28 32 51 17 11 -6 19 -7 19 -2 0 10 -24 21 -44 21 -7 0 -20 -8 -29 -18z"/>
<path d="M8851 1900 l2 -65 7 55 c4 30 3 59 -1 65 -5 5 -8 -19 -8 -55z"/>
<path d="M8905 1951 c15 -6 21 -21 26 -62 l6 -54 -1 60 c-1 56 -3 60 -26 62
-22 2 -23 2 -5 -6z"/>
<path d="M9062 1914 c-2 -56 13 -79 45 -71 14 4 13 5 -4 6 -23 1 -29 14 -36
81 -3 26 -4 22 -5 -16z"/>
<path d="M9138 1904 c-1 -31 0 -58 5 -61 4 -2 7 23 7 56 0 76 -7 79 -12 5z"/>
<path d="M9200 1941 c0 -25 6 -27 13 -6 4 8 2 17 -3 20 -6 4 -10 -3 -10 -14z"/>
<path d="M9286 1938 c-31 -44 -10 -99 37 -97 20 1 21 2 2 6 -20 5 -45 30 -45
45 0 4 18 8 40 8 32 0 40 4 40 18 0 43 -49 56 -74 20z m62 -10 c3 -15 -4 -18
-33 -18 -33 0 -35 2 -25 21 14 24 53 22 58 -3z"/>
<path d="M8408 1908 c-3 -7 -1 -17 4 -23 5 -5 15 -19 24 -30 12 -17 12 -14 -1
19 -19 48 -22 51 -27 34z"/>
<path d="M7290 1895 c-18 -22 -8 -50 20 -52 25 -3 25 -3 3 7 -27 11 -30 35 -5
49 9 6 12 11 6 11 -6 0 -17 -7 -24 -15z"/>
<path d="M9202 1880 c0 -19 2 -27 5 -17 2 9 2 25 0 35 -3 9 -5 1 -5 -18z"/>
<path d="M8130 1875 c0 -16 22 -35 40 -34 13 0 13 1 0 6 -8 4 -20 13 -27 22
-7 9 -13 11 -13 6z"/>
<path d="M298 1369 c-2 -45 0 -83 5 -86 4 -2 7 34 7 81 0 47 -2 86 -4 86 -3 0
-6 -36 -8 -81z"/>
<path d="M33 1360 c0 -47 2 -66 4 -42 2 23 2 61 0 85 -2 23 -4 4 -4 -43z"/>
<path d="M1182 1428 c-25 -25 -13 -49 34 -69 36 -16 45 -25 42 -42 -4 -29 -56
-37 -75 -11 -7 10 -13 13 -13 7 0 -35 83 -44 104 -10 15 23 -2 48 -42 61 -40
14 -54 29 -46 49 8 23 60 22 73 0 5 -10 12 -15 16 -12 3 4 -1 14 -10 23 -19
19 -66 21 -83 4z"/>
<path d="M1032 1403 c-7 -7 -8 -13 -3 -13 6 0 11 -24 13 -52 2 -44 6 -53 23
-56 18 -2 18 -2 3 8 -19 12 -25 78 -9 96 6 5 5 13 -3 20 -8 8 -15 7 -24 -3z"/>
<path d="M90 1340 c0 -35 2 -61 4 -59 8 8 10 108 3 116 -4 3 -7 -22 -7 -57z"/>
<path d="M140 1387 c20 -10 26 -22 31 -62 l6 -50 1 51 c2 54 -10 74 -42 74
-19 0 -18 -2 4 -13z"/>
<path d="M232 1388 c-16 -16 -16 -80 0 -96 7 -7 21 -12 33 -11 17 1 16 2 -5 8
-21 6 -25 13 -25 46 0 32 5 42 25 52 22 11 23 13 5 13 -12 0 -26 -5 -33 -12z"/>
<path d="M367 1382 c-35 -38 -14 -102 33 -102 19 0 33 7 40 19 34 65 -27 134
-73 83z m61 -4 c7 -7 12 -24 12 -38 0 -51 -52 -69 -72 -25 -22 49 25 98 60 63z"/>
<path d="M490 1340 c0 -35 2 -61 4 -59 8 8 10 108 3 116 -4 3 -7 -22 -7 -57z"/>
<path d="M540 1387 c20 -10 26 -22 30 -62 l6 -50 4 52 c5 54 -7 73 -47 73 -13
0 -11 -4 7 -13z"/>
<path d="M618 1390 c19 -8 22 -17 22 -60 0 -27 5 -50 10 -50 14 0 12 94 -2
108 -7 7 -21 12 -32 11 -20 0 -20 -1 2 -9z"/>
<path d="M709 1383 c-13 -15 -12 -15 7 -3 25 15 54 7 54 -14 0 -8 -10 -17 -22
-19 l-23 -4 23 -2 c18 -1 23 -6 20 -23 -4 -33 -53 -33 -52 -1 0 12 -3 20 -8
17 -4 -3 -8 -16 -8 -30 0 -22 4 -24 43 -23 l42 2 -4 51 c-2 28 -8 54 -15 58
-19 13 -43 9 -57 -9z"/>
<path d="M832 1335 c1 -56 2 -57 5 -13 3 34 10 52 24 62 20 14 20 14 -5 12
-25 -1 -26 -3 -24 -61z"/>
<path d="M956 1390 c12 -4 24 -15 27 -24 5 -13 -1 -16 -29 -16 -32 0 -35 2
-29 23 5 18 3 17 -10 -6 -13 -23 -14 -32 -3 -55 14 -30 62 -43 82 -22 8 9 6
11 -11 5 -33 -9 -63 3 -63 26 0 16 7 19 40 19 28 0 40 4 40 14 0 20 -28 46
-48 45 -13 0 -12 -2 4 -9z"/>
<path d="M1324 1385 c-23 -17 -12 -20 15 -3 15 9 23 9 35 -1 23 -19 20 -29
-11 -34 l-28 -4 28 -2 c30 -1 36 -21 12 -41 -23 -19 -50 -8 -47 20 2 18 0 22
-9 13 -6 -6 -9 -19 -7 -29 3 -15 13 -19 46 -19 l42 -1 0 48 c0 37 -4 50 -19
58 -26 13 -34 13 -57 -5z"/>
<path d="M1450 1384 c-17 -20 -17 -69 0 -89 9 -11 24 -15 42 -13 22 4 28 1 28
-14 0 -19 -41 -35 -61 -22 -8 4 -9 3 -5 -4 9 -16 49 -15 64 0 8 8 11 40 10 88
-1 74 -1 74 -7 20 -6 -51 -8 -55 -33 -58 -22 -3 -29 2 -34 22 -9 37 -1 59 26
73 23 12 24 13 4 13 -12 0 -27 -7 -34 -16z"/>
<path d="M1593 1393 c-7 -2 -13 -9 -13 -14 0 -5 8 -4 19 2 22 15 51 5 51 -16
0 -9 -9 -15 -24 -15 -27 0 -56 -24 -56 -46 0 -14 46 -31 57 -20 4 3 -3 6 -15
6 -11 0 -24 5 -27 10 -10 17 15 40 42 40 22 0 25 -4 21 -25 -3 -14 -1 -28 3
-31 14 -8 11 90 -3 104 -12 12 -33 14 -55 5z"/>
<path d="M1713 1340 c0 -36 2 -50 4 -32 2 17 2 47 0 65 -2 17 -4 3 -4 -33z"/>
<path d="M1755 1391 c15 -6 21 -21 26 -62 l6 -54 -1 60 c-1 56 -3 60 -26 62
-22 2 -23 2 -5 -6z"/>
<path d="M12757 1091 c-3 -11 -17 -22 -36 -26 -33 -7 -72 -49 -90 -98 -6 -15
-17 -27 -26 -27 -8 0 -15 -4 -15 -10 0 -5 8 -10 19 -10 12 0 20 -9 24 -28 8
-39 59 -91 96 -98 21 -5 31 -12 31 -25 0 -11 7 -19 15 -19 8 0 15 8 15 19 0
12 9 20 28 24 36 7 92 63 99 100 4 18 12 27 24 27 11 0 19 5 19 10 0 6 -7 10
-15 10 -9 0 -20 12 -26 27 -18 49 -57 91 -90 98 -19 4 -33 15 -36 26 -3 10
-11 19 -18 19 -7 0 -15 -9 -18 -19z m81 -55 c110 -60 62 -227 -65 -226 -99 1
-155 103 -103 188 11 18 30 37 43 42 32 13 99 11 125 -4z"/>
<path d="M12752 989 c-55 -21 -42 -119 16 -119 33 0 45 8 61 37 9 18 9 29 -3
52 -17 32 -41 42 -74 30z"/>
<path d="M5888 756 c-10 -7 -15 -16 -11 -19 3 -4 12 -2 20 5 17 14 81 13 98
-2 8 -6 16 -7 19 -2 16 26 -95 42 -126 18z"/>
<path d="M5829 678 c-2 -33 1 -50 12 -80 12 -30 69 -61 102 -55 18 3 16 5 -6
6 -19 1 -42 14 -64 36 -32 32 -35 40 -30 75 3 22 1 40 -4 40 -5 0 -10 -10 -10
-22z"/>
<path d="M6106 658 c-38 -54 -5 -122 59 -122 64 0 97 68 59 122 -22 32 -96 32
-118 0z m100 -23 c15 -23 15 -27 0 -50 -20 -31 -59 -33 -80 -4 -23 33 0 79 40
79 14 0 30 -10 40 -25z"/>
<path d="M6743 672 c-20 -12 -32 -58 -24 -89 9 -36 54 -59 89 -47 42 15 37 31
-10 30 -57 -1 -57 21 -1 43 55 21 59 27 38 51 -18 20 -69 27 -92 12z m72 -22
c5 -9 -50 -40 -70 -40 -10 0 -5 26 7 38 15 15 54 16 63 2z"/>
<path d="M6495 660 c4 -6 11 -8 16 -5 14 9 11 15 -7 15 -8 0 -12 -5 -9 -10z"/>
<path d="M6575 663 c17 -3 20 -12 20 -53 0 -48 -1 -50 -32 -56 -17 -3 -42 -3
-55 1 -21 5 -21 5 -4 -6 10 -6 33 -9 52 -6 31 5 34 4 34 -19 0 -33 -40 -52
-75 -36 -19 9 -23 9 -19 -2 13 -35 96 -18 108 21 3 10 5 51 5 91 0 72 -1 72
-27 71 -20 -1 -22 -3 -7 -6z"/>
<path d="M6031 630 c-8 -24 -7 -30 5 -30 9 0 14 10 14 30 0 17 -2 30 -4 30 -2
0 -9 -13 -15 -30z"/>
<path d="M6479 638 c-8 -24 -7 -58 1 -58 5 0 10 14 10 30 0 17 -2 30 -5 30 -3
0 -5 -1 -6 -2z"/>
<path d="M5996 565 c-11 -9 -14 -15 -7 -15 7 0 19 7 27 15 20 19 5 19 -20 0z"/>
<path d="M4044 435 c0 -49 1 -71 3 -48 2 23 2 64 0 90 -2 26 -3 8 -3 -42z"/>
<path d="M4104 435 c0 -49 1 -71 3 -48 2 23 2 64 0 90 -2 26 -3 8 -3 -42z"/>
<path d="M2855 498 c-2 -7 -15 -43 -29 -80 -14 -38 -23 -68 -20 -68 2 0 9 11
14 25 8 20 16 25 44 25 28 0 39 -6 51 -27 15 -27 16 -27 10 -3 -4 14 -15 51
-27 83 -20 55 -34 70 -43 45z m34 -49 c6 -18 11 -34 11 -35 0 -2 -13 -4 -30
-4 -33 0 -36 7 -18 45 15 33 24 32 37 -6z"/>
<path d="M3705 494 c-14 -14 -14 -19 -2 -37 7 -11 29 -26 48 -32 26 -9 34 -17
34 -36 0 -19 -6 -25 -30 -27 -19 -3 -33 2 -42 14 -7 10 -16 14 -20 10 -11 -11
26 -36 53 -36 39 0 54 11 54 39 0 20 -7 31 -27 40 -16 8 -35 17 -43 21 -8 4
-15 16 -15 26 0 24 48 32 73 12 15 -12 16 -11 3 5 -17 21 -64 22 -86 1z"/>
<path d="M4350 430 c0 -78 1 -80 25 -80 37 0 73 20 79 44 19 69 -9 116 -69
116 l-35 0 0 -80z m84 48 c34 -48 3 -123 -47 -116 -20 3 -22 10 -25 71 l-3 67
30 0 c20 0 35 -8 45 -22z"/>
<path d="M3851 488 c-1 -10 -9 -18 -18 -18 -17 -1 -17 -1 0 -11 12 -7 17 -23
17 -59 0 -41 3 -50 18 -49 10 0 12 3 5 6 -8 3 -13 24 -13 54 0 32 4 49 13 49
8 0 9 3 1 8 -6 4 -14 14 -17 22 -4 12 -6 11 -6 -2z"/>
<path d="M2975 454 c-18 -19 -4 -45 24 -43 13 1 13 2 -1 6 -10 2 -18 11 -18
19 0 21 30 29 54 14 19 -12 20 -12 7 3 -17 21 -45 22 -66 1z"/>
<path d="M3092 405 c1 -56 2 -57 5 -13 3 34 10 52 24 62 20 14 20 14 -5 12
-25 -1 -26 -3 -24 -61z"/>
<path d="M3180 455 c-9 -10 -9 -15 -1 -15 6 0 11 5 11 10 0 6 12 10 26 10 25
0 26 -2 22 -50 -2 -33 1 -51 10 -55 15 -6 17 67 2 96 -13 23 -52 25 -70 4z"/>
<path d="M3300 410 c0 -35 2 -61 4 -59 8 7 10 108 3 115 -4 4 -7 -21 -7 -56z"/>
<path d="M3352 463 c18 -5 25 -22 31 -83 3 -26 4 -23 5 16 2 51 -10 75 -37 73
-12 -1 -12 -2 1 -6z"/>
<path d="M3427 463 c23 -4 30 -19 36 -83 3 -26 4 -23 5 16 2 54 -10 75 -42 73
-19 -2 -19 -2 1 -6z"/>
<path d="M3519 454 c-13 -16 -12 -16 7 -4 37 23 56 6 53 -45 -2 -24 0 -48 5
-52 4 -4 6 19 4 52 -3 56 -5 60 -29 63 -15 2 -32 -4 -40 -14z"/>
<path d="M3926 448 c-31 -44 -10 -99 37 -97 20 1 20 2 -3 8 -15 4 -26 15 -28
29 -3 20 1 22 38 22 38 0 41 2 34 23 -13 42 -54 50 -78 15z m62 -10 c3 -14 -3
-18 -27 -18 -29 0 -41 17 -24 34 13 13 48 1 51 -16z"/>
<path d="M4200 461 c20 -6 25 -14 27 -43 2 -40 -15 -62 -44 -56 -12 3 -17 11
-16 26 2 14 -1 21 -7 17 -19 -12 -11 -44 13 -49 57 -11 67 -5 67 44 0 50 -13
71 -44 69 -18 -1 -17 -2 4 -8z"/>
<path d="M4502 418 c-2 -62 5 -68 66 -65 20 1 22 6 20 62 -1 53 -2 55 -5 15
-5 -53 -18 -72 -47 -68 -18 3 -22 12 -27 58 l-6 55 -1 -57z"/>
<path d="M4640 451 c-17 -34 -12 -79 11 -91 23 -13 69 -6 69 10 0 6 -9 5 -20
-2 -27 -17 -54 0 -58 36 -6 49 44 78 67 39 6 -10 11 -13 11 -7 1 34 -63 46
-80 15z"/>
<path d="M4772 457 c-6 -6 -13 -24 -17 -39 -8 -30 22 -68 53 -68 12 0 10 4 -8
13 -14 7 -26 20 -28 30 -3 14 4 17 38 17 38 0 41 2 34 23 -11 37 -51 50 -72
24z m58 -17 c10 -18 8 -20 -25 -20 -22 0 -35 5 -35 13 0 33 44 37 60 7z"/>
<path d="M3182 408 c-26 -26 -7 -59 31 -57 7 0 2 4 -10 9 -27 11 -30 35 -5 49
9 6 12 11 7 11 -6 0 -16 -5 -23 -12z"/>
<path d="M3522 411 c-23 -14 -10 -56 18 -58 25 -3 25 -3 3 7 -27 11 -30 35 -5
49 9 6 13 10 7 11 -5 0 -16 -4 -23 -9z"/>
<path d="M3028 397 c17 -20 8 -37 -20 -37 -12 0 -19 -3 -15 -6 3 -4 18 -3 32
0 20 5 26 12 23 28 -2 12 -10 24 -18 26 -13 5 -13 3 -2 -11z"/>
<path d="M2965 370 c3 -5 8 -10 11 -10 2 0 4 5 4 10 0 6 -5 10 -11 10 -5 0 -7
-4 -4 -10z"/>
<path d="M6757 312 c-11 -12 -17 -36 -17 -70 0 -41 4 -54 22 -66 12 -9 32 -16
43 -15 13 1 10 4 -11 10 -33 9 -44 30 -44 86 0 32 21 63 43 63 7 0 23 -7 35
-16 12 -8 22 -11 22 -5 0 13 -33 31 -58 31 -10 0 -26 -8 -35 -18z"/>
<path d="M6903 250 c0 -47 2 -66 4 -42 2 23 2 61 0 85 -2 23 -4 4 -4 -43z"/>
<path d="M7091 253 c0 -46 3 -83 8 -83 5 0 7 17 4 38 -6 41 12 66 43 60 42 -8
43 -80 1 -98 -19 -9 -19 -10 -2 -7 30 4 52 49 39 84 -8 23 -15 28 -44 29 -30
0 -36 4 -41 30 -4 17 -7 -3 -8 -53z"/>
<path d="M7363 250 c0 -47 2 -66 4 -42 2 23 2 61 0 85 -2 23 -4 4 -4 -43z"/>
<path d="M7500 267 c-16 -37 -30 -75 -29 -84 0 -15 2 -14 11 5 15 31 83 32 93
1 4 -11 9 -19 11 -17 3 4 -44 149 -52 157 -2 2 -17 -26 -34 -62z m46 -2 c19
-45 19 -45 -16 -45 -16 0 -30 4 -30 9 0 13 21 71 26 71 3 0 12 -16 20 -35z"/>
<path d="M7700 301 c0 -25 -3 -28 -27 -23 -46 9 -71 -52 -38 -94 14 -18 14
-17 4 9 -17 38 2 80 34 75 19 -3 22 -9 22 -51 0 -31 4 -47 13 -47 8 0 12 23
12 80 0 47 -4 80 -10 80 -5 0 -10 -13 -10 -29z"/>
<path d="M8680 253 c-3 -45 -1 -78 3 -74 4 4 7 41 5 82 l-3 74 -5 -82z"/>
<path d="M8141 298 c-1 -9 -7 -19 -13 -21 -10 -4 -10 -6 0 -6 7 -1 12 -16 12
-40 0 -47 8 -71 23 -71 7 0 7 4 -1 12 -16 16 -16 98 1 98 8 0 9 3 1 8 -6 4
-14 14 -17 22 -4 12 -6 12 -6 -2z"/>
<path d="M6960 261 c-14 -28 -13 -54 5 -77 14 -18 14 -17 4 9 -23 52 27 104
60 63 20 -24 9 -69 -19 -83 -16 -8 -19 -13 -9 -13 40 0 67 71 39 105 -18 22
-67 19 -80 -4z"/>
<path d="M7235 269 c-11 -16 -1 -19 13 -3 7 8 8 14 3 14 -5 0 -13 -5 -16 -11z"/>
<path d="M7282 270 c18 -11 22 -67 5 -87 -7 -9 -5 -13 7 -13 14 0 17 9 14 52
-2 44 -6 53 -23 56 -18 2 -18 2 -3 -8z"/>
<path d="M7760 253 c16 -54 30 -83 40 -83 5 0 10 5 10 10 0 6 -5 10 -10 10 -6
0 -15 20 -22 45 -7 25 -15 45 -19 45 -4 0 -4 -12 1 -27z"/>
<path d="M7827 273 c-8 -14 -19 -73 -13 -73 6 0 27 72 22 78 -2 2 -6 0 -9 -5z"/>
<path d="M7888 269 c-23 -13 -24 -72 -3 -89 14 -11 14 -10 6 14 -10 25 -10 26
30 26 38 0 40 2 37 28 -2 20 -9 28 -28 29 -14 2 -33 -2 -42 -8z m60 -21 c3
-14 -3 -18 -27 -18 -29 0 -41 17 -24 34 13 13 48 1 51 -16z"/>
<path d="M8001 225 l2 -60 7 50 c4 28 3 54 -1 60 -5 5 -8 -16 -8 -50z"/>
<path d="M8050 271 c21 -6 26 -14 31 -56 l6 -50 1 42 c3 57 -5 73 -37 72 l-26
-1 25 -7z"/>
<path d="M8210 232 c0 -49 13 -72 40 -72 12 1 12 2 -2 11 -13 7 -18 23 -18 59
0 28 -4 50 -10 50 -5 0 -10 -22 -10 -48z"/>
<path d="M8290 237 c0 -24 -5 -48 -12 -55 -9 -9 -8 -12 5 -12 14 0 17 10 17
55 0 30 -2 55 -5 55 -3 0 -5 -19 -5 -43z"/>
<path d="M8342 221 c1 -49 2 -51 5 -14 3 28 11 47 24 57 19 13 19 14 -6 14
-24 0 -25 -3 -23 -57z"/>
<path d="M8430 261 c-15 -29 -12 -67 7 -82 15 -13 15 -12 5 8 -17 32 -16 33
28 33 36 0 40 3 40 24 0 38 -61 51 -80 17z m68 -13 c3 -15 -4 -18 -32 -18 -38
0 -44 8 -24 28 17 17 52 11 56 -10z"/>
<path d="M8745 256 c-27 -41 8 -109 48 -92 7 2 4 5 -5 5 -28 1 -50 44 -39 74
5 14 16 27 23 30 9 4 10 6 1 6 -7 1 -20 -10 -28 -23z"/>
<path d="M8808 264 c24 -17 28 -44 10 -77 -10 -20 -10 -21 5 -8 32 26 12 101
-26 101 -6 0 -1 -7 11 -16z"/>
<path d="M8880 261 c-14 -28 -13 -54 5 -77 14 -18 14 -17 4 9 -17 38 2 80 34
75 19 -3 22 -10 25 -61 2 -35 -2 -64 -9 -73 -8 -10 -8 -14 -1 -14 20 0 32 37
32 97 l0 58 -40 3 c-30 2 -41 -2 -50 -17z"/>
<path d="M9008 200 c-2 -44 0 -80 5 -80 4 0 7 36 7 80 0 44 -2 80 -4 80 -3 0
-6 -36 -8 -80z"/>
<path d="M9069 263 c-12 -16 -12 -17 1 -7 8 6 22 14 30 17 13 5 12 6 -1 6 -9
1 -23 -7 -30 -16z"/>
<path d="M9128 269 c15 -17 16 -71 0 -87 -9 -9 -8 -12 6 -12 14 0 17 8 14 52
-2 35 -8 53 -18 56 -12 4 -13 2 -2 -9z"/>
<path d="M6818 233 c28 -6 39 -28 22 -48 -11 -13 -10 -14 4 -9 10 4 16 17 16
35 0 26 -3 29 -32 28 -25 -1 -27 -3 -10 -6z"/>
<path d="M9069 214 c-16 -19 -1 -48 27 -52 18 -3 18 -2 2 8 -21 13 -24 46 -5
53 7 4 8 6 1 6 -6 1 -17 -6 -25 -15z"/>
<path d="M7220 191 c0 -10 39 -36 45 -29 2 2 -8 11 -21 21 -13 10 -24 13 -24
8z"/>
<path d="M8600 192 c0 -15 38 -35 53 -28 8 3 7 5 -2 5 -8 1 -23 8 -33 18 -10
9 -18 11 -18 5z"/>
<path d="M7925 170 c-16 -7 -17 -9 -3 -9 9 -1 20 4 23 9 7 11 7 11 -20 0z"/>
<path d="M8475 170 c-16 -7 -17 -9 -3 -9 9 -1 20 4 23 9 7 11 7 11 -20 0z"/>
<path d="M68 153 c7 -3 16 -2 19 1 4 3 -2 6 -13 5 -11 0 -14 -3 -6 -6z"/>
<path d="M193 149 c24 -14 21 -32 -8 -67 -14 -17 -25 -33 -25 -36 0 -3 17 -5
38 -4 37 1 37 1 4 5 l-33 4 26 30 c29 35 32 64 9 73 -24 9 -31 7 -11 -5z"/>
<path d="M260 141 c-25 -48 -1 -109 38 -97 18 6 22 15 22 50 0 61 -37 90 -60
47z m45 -41 c0 -34 -4 -45 -17 -48 -21 -4 -33 35 -24 74 5 17 12 24 24 22 13
-3 17 -14 17 -48z"/>
<path d="M360 150 c-8 -5 -12 -11 -10 -14 3 -2 14 2 24 10 22 15 10 19 -14 4z"/>
<path d="M483 149 c11 -7 17 -22 17 -49 0 -27 -6 -42 -17 -49 -10 -6 -13 -11
-7 -11 20 0 34 24 34 60 0 36 -14 60 -34 60 -6 0 -3 -5 7 -11z"/>
<path d="M596 144 c-33 -32 -8 -104 35 -104 20 0 39 20 39 42 0 12 -7 18 -22
17 -18 -1 -19 -2 -5 -6 23 -6 18 -37 -6 -41 -26 -5 -47 16 -47 48 0 37 25 58
51 42 10 -7 19 -8 19 -3 0 9 -23 21 -40 21 -5 0 -16 -7 -24 -16z"/>
<path d="M993 100 c0 -36 2 -50 4 -32 2 17 2 47 0 65 -2 17 -4 3 -4 -33z"/>
<path d="M1427 153 c19 -4 23 -12 26 -61 l3 -57 2 57 c2 50 5 57 25 61 12 2 0
4 -28 4 -27 0 -40 -2 -28 -4z"/>
<path d="M404 137 c3 -10 -6 -30 -24 -51 -17 -18 -30 -36 -30 -40 0 -3 17 -5
38 -5 l37 2 -34 6 -33 6 22 20 c31 28 40 49 28 66 -8 11 -9 11 -4 -4z"/>
<path d="M446 134 c-8 -21 -7 -56 2 -71 4 -6 7 11 7 38 0 27 -1 49 -1 49 -1 0
-5 -7 -8 -16z"/>
<path d="M51 107 c-1 -30 23 -47 41 -29 8 8 5 9 -10 5 -17 -4 -21 0 -25 24
l-4 28 -2 -28z"/>
<path d="M710 116 c-15 -19 -9 -56 12 -69 34 -22 66 41 36 71 -16 16 -33 15
-48 -2z m45 -31 c0 -23 -4 -30 -20 -30 -21 0 -31 25 -21 51 11 28 41 12 41
-21z"/>
<path d="M838 114 c12 -8 22 -21 22 -29 0 -8 -10 -21 -22 -29 -12 -9 -17 -16
-11 -16 16 0 43 28 43 45 0 17 -27 45 -43 45 -6 0 -1 -7 11 -16z"/>
<path d="M902 118 c-24 -24 -8 -79 22 -78 6 0 3 5 -6 11 -10 5 -18 21 -18 34
0 13 8 29 18 34 9 6 12 11 7 11 -6 0 -16 -5 -23 -12z"/>
<path d="M951 130 c-7 -14 -5 -108 2 -101 5 5 6 30 4 57 -2 27 -4 47 -6 44z"/>
<path d="M1040 116 c-25 -31 13 -97 40 -70 8 8 4 10 -11 10 -36 -2 -34 22 3
27 l33 4 -32 1 c-36 2 -43 15 -15 31 9 6 12 11 6 11 -6 0 -17 -7 -24 -14z"/>
<path d="M1522 118 c-20 -20 -15 -66 9 -73 12 -4 25 -3 30 2 6 6 1 9 -12 9
-36 -2 -34 22 3 27 l33 4 -32 1 c-36 2 -43 15 -15 31 9 6 12 11 7 11 -6 0 -16
-5 -23 -12z"/>
<path d="M1602 80 c1 -40 2 -41 5 -10 2 19 11 40 20 47 13 10 13 12 -6 10 -18
-1 -21 -7 -19 -47z"/>
<path d="M1663 85 c0 -27 2 -38 4 -22 2 15 2 37 0 50 -2 12 -4 0 -4 -28z"/>
<path d="M1693 123 c12 -3 17 -16 18 -46 l2 -42 6 40 c6 41 -2 56 -29 54 -11
-1 -10 -3 3 -6z"/>
<path d="M1753 119 c11 -6 18 -24 19 -47 l1 -37 4 33 c4 34 -10 62 -31 62 -6
0 -3 -5 7 -11z"/>
<path d="M1813 115 c-3 -9 -3 -19 1 -22 3 -4 6 2 6 11 0 13 6 17 20 13 11 -3
18 -1 14 4 -9 14 -34 10 -41 -6z"/>
<path d="M797 113 c-9 -9 -9 -51 1 -56 4 -3 7 10 7 29 0 19 0 34 -1 34 0 0 -4
-3 -7 -7z"/>
<path d="M2483 75 c0 -22 2 -30 4 -17 2 12 2 30 0 40 -3 9 -5 -1 -4 -23z"/>
<path d="M1845 77 c21 -16 4 -33 -23 -22 -13 5 -14 3 -6 -5 15 -15 54 -4 54
15 0 7 -7 16 -16 19 -25 10 -29 7 -9 -7z"/>
<path d="M68 43 c7 -3 16 -2 19 1 4 3 -2 6 -13 5 -11 0 -14 -3 -6 -6z"/>
</g>
</svg>
